<svg width="100" height="86" viewBox="0 0 100 86" fill="none" xmlns="http://www.w3.org/2000/svg">
<path d="M52.0291 48.5191C52.0291 60.4062 50.0006 69.2323 45.9435 74.9975C41.8865 80.7628 35.5457 83.6498 26.9209 83.6586C18.4063 83.6586 12.1028 80.8354 8.01058 75.1891C3.91835 69.5427 1.79849 61.1095 1.651 49.8894V36.3513C1.651 24.6206 3.67951 15.9045 7.73652 10.2031C11.7935 4.5017 18.152 1.651 26.812 1.651C35.3971 1.651 41.7192 4.40264 45.7784 9.90591C49.8377 15.4092 51.9212 23.8963 52.0291 35.3674V48.5191ZM41.8887 34.6508C41.8887 26.0657 40.678 19.8074 38.2566 15.8759C35.8351 11.9443 32.0203 9.97966 26.812 9.98186C21.6213 9.98186 17.8394 11.9377 15.4664 15.8494C13.0934 19.7612 11.8684 25.773 11.7913 33.8848V50.1106C11.7913 58.7354 13.0428 65.1026 15.5457 69.2125C18.0486 73.3223 21.8403 75.3784 26.9209 75.3806C31.9289 75.3806 35.648 73.4434 38.0783 69.5691C40.5085 65.6948 41.7787 59.5917 41.8887 51.2597V34.6508Z" stroke="#0E469A" stroke-width="2" stroke-linecap="round" stroke-linejoin="round"/>
<path d="M98.349 82.5491H88.1625V14.9711L67.7068 22.4831V13.2739L96.7641 2.37744H98.3523L98.349 82.5491Z" stroke="#0E469A" stroke-width="2" stroke-linecap="round" stroke-linejoin="round"/>
</svg>
