<svg width="100" height="72" viewBox="0 0 100 72" fill="none" xmlns="http://www.w3.org/2000/svg">
<g clip-path="url(#clip0)">
<path d="M43.7342 40.7838C43.7342 50.7757 42.0291 58.1948 38.6189 63.0409C35.2087 67.887 29.8787 70.3137 22.629 70.3211C15.4718 70.3211 10.1733 67.948 6.73345 63.2019C3.29363 58.4557 1.51173 51.3669 1.38776 41.9356V30.5559C1.38776 20.6953 3.09286 13.3688 6.50308 8.57641C9.9133 3.78397 15.2581 1.38776 22.5374 1.38776C29.7538 1.38776 35.068 3.70071 38.4801 8.32661C41.8922 12.9525 43.6435 20.0866 43.7342 29.7288V40.7838ZM35.2105 29.1265C35.2105 21.9101 34.1928 16.6495 32.1574 13.3448C30.122 10.04 26.9153 8.3886 22.5374 8.39045C18.1742 8.39045 14.9953 10.0345 13.0006 13.3226C11.0059 16.6107 9.97621 21.664 9.91145 28.4826V42.1216C9.91145 49.3713 10.9634 54.7235 13.0672 58.1781C15.1711 61.6327 18.3583 63.361 22.629 63.3628C26.8385 63.3628 29.9647 61.7345 32.0075 58.4779C34.0503 55.2212 35.118 50.0911 35.2105 43.0875V29.1265Z" stroke="#0E469A" stroke-width="2" stroke-linecap="round" stroke-linejoin="round"/>
<path d="M98.6122 69.3885H54.6532V63.2823L77.8789 37.4698C81.3187 33.5692 83.6918 30.3977 84.9982 27.9552C86.2724 25.6313 86.945 23.0256 86.9549 20.3752C86.9549 16.8725 85.8956 13.9998 83.7769 11.7572C81.6583 9.51454 78.8318 8.3923 75.2977 8.39045C71.0585 8.39045 67.7639 9.59318 65.4139 11.9987C63.064 14.4041 61.8909 17.7635 61.8946 22.0766H53.3653C53.3653 15.9001 55.3535 10.9088 59.33 7.1026C63.3064 3.2964 68.629 1.39146 75.2977 1.38776C81.5352 1.38776 86.4655 3.02348 90.0885 6.29491C93.7115 9.56635 95.524 13.9212 95.5258 19.3594C95.5258 25.9633 91.3172 33.8274 82.8999 42.9515L64.931 62.4497H98.6122V69.3885Z" stroke="#0E469A" stroke-width="2" stroke-linecap="round" stroke-linejoin="round"/>
</g>
<defs>
<clipPath id="clip0">
<rect width="100" height="71.7089" fill="white"/>
</clipPath>
</defs>
</svg>
