<svg width="100" height="74" viewBox="0 0 100 74" fill="none" xmlns="http://www.w3.org/2000/svg">
<g clip-path="url(#clip0)">
<path d="M44.9353 41.9039C44.9353 52.1702 43.1833 59.793 39.6795 64.7722C36.1756 69.7513 30.6992 72.2447 23.2504 72.2523C15.8967 72.2523 10.4527 69.8141 6.91838 64.9376C3.38409 60.061 1.55326 52.7776 1.42588 43.0873V31.3951C1.42588 21.2637 3.17781 13.736 6.68168 8.81197C10.1856 3.88793 15.6771 1.4259 23.1563 1.4259C30.5709 1.4259 36.0311 3.80237 39.5369 8.55532C43.0426 13.3083 44.8421 20.6382 44.9353 30.5453V41.9039ZM36.1775 29.9264C36.1775 22.5119 35.1318 17.1068 33.0405 13.7113C30.9493 10.3158 27.6545 8.61901 23.1563 8.62091C18.6734 8.62091 15.4071 10.3101 13.3577 13.6885C11.3082 17.0669 10.2502 22.259 10.1837 29.2648V43.2784C10.1837 50.7272 11.2645 56.2264 13.4261 59.7759C15.5877 63.3254 18.8625 65.1011 23.2504 65.103C27.5756 65.103 30.7877 63.4299 32.8866 60.0839C34.9854 56.7378 36.0824 51.4668 36.1775 44.2708V29.9264Z" stroke="#0E469A" stroke-width="2" stroke-linecap="round" stroke-linejoin="round"/>
<path d="M68.8901 32.5786H75.4719C79.607 32.5158 82.858 31.4265 85.225 29.3105C87.592 27.1945 88.7754 24.3427 88.7754 20.7552C88.7754 12.6771 84.7506 8.63707 76.7011 8.63517C72.9139 8.63517 69.892 9.71694 67.6353 11.8805C65.3786 14.044 64.2502 16.9034 64.2502 20.4586H55.4925C55.4925 14.9984 57.4887 10.4612 61.4812 6.84711C65.4737 3.23297 70.5507 1.4259 76.7125 1.4259C83.2145 1.4259 88.3125 3.14647 92.0065 6.5876C95.7005 10.0287 97.5418 14.8102 97.5304 20.932C97.5304 23.9301 96.5608 26.8389 94.6216 29.6584C92.6504 32.481 89.8937 34.6626 86.6936 35.9323C90.4827 37.13 93.4105 39.1177 95.4771 41.8953C97.5437 44.6729 98.577 48.0665 98.577 52.0761C98.577 58.2625 96.557 63.1704 92.517 66.7998C88.477 70.4291 83.2221 72.2438 76.7524 72.2438C70.2884 72.2438 65.025 70.4919 60.9622 66.988C56.8993 63.4841 54.8717 58.8605 54.8793 53.117H63.6856C63.6856 56.7482 64.8691 59.6523 67.236 61.8291C69.603 64.006 72.7751 65.0944 76.7524 65.0944C80.9825 65.0944 84.2145 63.9898 86.4484 61.7807C88.6823 59.5715 89.8097 56.4022 89.8306 52.2729C89.8306 48.2652 88.5996 45.1881 86.1376 43.0417C83.6755 40.8953 80.1251 39.7907 75.4862 39.728H68.8901V32.5786Z" stroke="#0E469A" stroke-width="2" stroke-linecap="round" stroke-linejoin="round"/>
</g>
<defs>
<clipPath id="clip0">
<rect width="100" height="73.6782" fill="white"/>
</clipPath>
</defs>
</svg>
