<svg width="66" height="66" viewBox="0 0 66 66" fill="none" xmlns="http://www.w3.org/2000/svg">
<path d="M48.435 17.8066C48.5544 17.6885 48.6492 17.5478 48.7139 17.3928C48.7786 17.2377 48.812 17.0714 48.812 16.9034C48.812 16.7354 48.7786 16.5691 48.7139 16.414C48.6492 16.259 48.5544 16.1183 48.435 16.0002C48.1942 15.7629 47.8698 15.6299 47.5318 15.6299C47.1937 15.6299 46.8693 15.7629 46.6286 16.0002L32.1009 30.5336L18.3759 44.2602V18.2808C18.3675 17.9474 18.2291 17.6304 17.9904 17.3976C17.7516 17.1648 17.4313 17.0345 17.0978 17.0345C16.7642 17.0345 16.4439 17.1648 16.2051 17.3976C15.9664 17.6304 15.828 17.9474 15.8196 18.2808V47.3443C15.821 47.5967 15.8971 47.8431 16.0382 48.0523C16.1793 48.2616 16.3792 48.4244 16.6126 48.5204C16.7664 48.5881 16.9326 48.623 17.1006 48.6229C17.4387 48.6192 17.7622 48.4848 18.0034 48.2479L33.0045 33.2428L55.746 55.9843C49.6967 61.9802 41.5217 65.3404 33.0045 65.3319C15.1454 65.3319 0.668884 50.8547 0.668884 32.9955C0.668884 15.1364 15.1462 0.668915 33.0045 0.668915C50.8628 0.668915 65.3319 15.1462 65.3319 32.9955C65.3464 40.7494 62.5594 48.2475 57.4841 54.1096L34.8109 31.4364L48.435 17.8066Z" fill="#0E469A"/>
</svg>
